<?xml version="1.0" encoding="utf-8"?>
<!-- Generator: Adobe Illustrator 18.1.1, SVG Export Plug-In . SVG Version: 6.00 Build 0)  -->
<svg version="1.1" id="Layer_1" xmlns="http://www.w3.org/2000/svg" xmlns:xlink="http://www.w3.org/1999/xlink" x="0px" y="0px"
	 width="149px" height="31.9px" viewBox="2.9 380.5 149 31.9" enable-background="new 2.9 380.5 149 31.9" xml:space="preserve">
<g>
	<path fill="#A1A3A6" d="M46.4,389.1c0-0.2-0.4-0.4-0.6-0.4h-5.5c-0.2,0-0.4,0.2-0.6,0.4l-6.9,22c0,0.2,0,0.4,0,0.6
		c0.2,0.2,0.2,0.2,0.4,0.2h3.8c0.2,0,0.4-0.2,0.6-0.4l4.8-16.2c0,0,0.2-0.4,0.6-0.4c0.4,0,0.6,0.4,0.6,0.4l2.2,7.7h-3
		c-0.2,0-0.4,0.2-0.6,0.4l-0.8,3c0,0.2,0,0.4,0,0.6c0.2,0.2,0.2,0.2,0.4,0.2H47l1.4,4.2c0,0.2,0.4,0.4,0.6,0.4h3.6
		c0.2,0,0.4,0,0.4-0.2c0.2-0.2,0.2-0.4,0-0.6L46.4,389.1L46.4,389.1z"/>
	<path fill="#A1A3A6" d="M63,408.5c0-0.2-0.2-0.4-0.2-0.4c-0.2,0-0.4-0.2-0.4,0c-0.6,0.2-1.2,0.2-1.6,0.2c-0.8,0-1.2-0.4-1.2-1.2
		v-8.5H63c0.4,0,0.6-0.2,0.6-0.6v-2.6c0-0.4-0.2-0.6-0.6-0.6h-3.4v-4c0-0.2,0-0.4-0.2-0.4c-0.2-0.2-0.2-0.2-0.4-0.2l-3.4,0.4
		c-0.2,0-0.6,0.2-0.6,0.6v3.6h-2.2c-0.4,0-0.6,0.2-0.6,0.6v2.6c0,0.4,0.2,0.6,0.6,0.6h1.8v9.1c0,3,1.6,4.6,4.8,4.6
		c1,0,2.4-0.2,3.4-0.6c0.2,0,0.4-0.4,0.4-0.6L63,408.5L63,408.5z"/>
	<path fill="#A1A3A6" d="M69.4,388.1H66c-0.4,0-0.6,0.2-0.6,0.6v22.4c0,0.4,0.2,0.6,0.6,0.6h3.4c0.4,0,0.6-0.2,0.6-0.6v-22.4
		C70.1,388.5,69.7,388.1,69.4,388.1L69.4,388.1z"/>
	<path fill="#A1A3A6" d="M80.8,405.7v2c-0.6,0.4-1.6,0.8-2.8,0.8c-1,0-1.4-0.4-1.4-1.4c0-1,0.2-1.4,1.4-1.4H80.8L80.8,405.7z
		 M78.3,394.4c-1.8,0-3.8,0.2-5.5,0.8c-0.2,0-0.4,0.4-0.4,0.6l0.4,2.4c0,0.2,0.2,0.2,0.2,0.4c0.2,0,0.2,0.2,0.4,0
		c1.4-0.2,3-0.4,4.2-0.4c2.4,0,2.8,0.6,2.8,2.2v1.6h-3.6c-3.6,0-5.1,1.4-5.1,4.8c0,3.2,1.6,5.3,4.6,5.3c1.6,0,3.4-0.4,4.8-1.4
		l0.2,0.6c0,0.2,0.4,0.4,0.6,0.4H85c0.4,0,0.6-0.2,0.6-0.6v-10.7C85.4,396.2,83.4,394.4,78.3,394.4L78.3,394.4z"/>
	<path fill="#A1A3A6" d="M94.1,401.3c-2.2-0.6-2.2-0.6-2.2-1.8c0-0.8,0-1.2,1.8-1.2c1.2,0,3,0.2,4.2,0.4c0.2,0,0.4,0,0.4-0.2
		c0.2,0,0.2-0.2,0.2-0.4l0.4-2.6c0-0.2-0.2-0.6-0.4-0.6c-1.4-0.4-3.2-0.6-4.8-0.6c-5.5,0-6.5,2-6.5,5.1c0,3.4,0.6,4.4,4.6,5.5
		c2.6,0.6,2.6,1.2,2.6,2c0,1,0,1.4-1.8,1.4c-1.4,0-3-0.2-4.4-0.6c-0.2,0-0.4,0-0.4,0c-0.2,0-0.2,0.2-0.2,0.4l-0.4,2.4
		c0,0.2,0.2,0.6,0.4,0.6c1.6,0.6,3.8,0.8,5.5,0.8c5.3,0,6.3-2.2,6.3-5.5C99.4,403.3,98.7,402.5,94.1,401.3L94.1,401.3z"/>
	<path fill="#A1A3A6" d="M107.6,401.3c-2.2-0.6-2.2-0.6-2.2-1.8c0-0.8,0-1.2,1.8-1.2c1.2,0,3,0.2,4.2,0.4c0.2,0,0.4,0,0.4-0.2
		c0.2,0,0.2-0.2,0.2-0.4l0.4-2.6c0-0.2-0.2-0.6-0.4-0.6c-1.4-0.4-3.2-0.6-4.8-0.6c-5.5,0-6.5,2-6.5,5.1c0,3.4,0.6,4.4,4.6,5.5
		c2.6,0.6,2.6,1.2,2.6,2c0,1,0,1.4-1.8,1.4c-1.4,0-3-0.2-4.4-0.6c-0.2,0-0.4,0-0.4,0c-0.2,0-0.2,0.2-0.2,0.4l-0.4,2.4
		c0,0.2,0.2,0.6,0.4,0.6c1.6,0.6,3.8,0.8,5.5,0.8c5.3,0,6.3-2.2,6.3-5.5C112.9,403.3,112.3,402.5,107.6,401.3L107.6,401.3z"/>
	<path fill="#A1A3A6" d="M118.9,388.1h-3.4c-0.4,0-0.6,0.2-0.6,0.6v3.2c0,0.4,0.2,0.6,0.6,0.6h3.4c0.4,0,0.6-0.2,0.6-0.6v-3.2
		C119.6,388.5,119.1,388.1,118.9,388.1L118.9,388.1z"/>
	<path fill="#A1A3A6" d="M118.9,394.8h-3.4c-0.4,0-0.6,0.2-0.6,0.6v16c0,0.4,0.2,0.6,0.6,0.6h3.4c0.4,0,0.6-0.2,0.6-0.6v-16
		C119.6,395,119.1,394.8,118.9,394.8L118.9,394.8z"/>
	<path fill="#A1A3A6" d="M130.3,405.7v2c-0.6,0.4-1.6,0.8-2.8,0.8c-1,0-1.4-0.4-1.4-1.4c0-1,0.2-1.4,1.4-1.4H130.3L130.3,405.7z
		 M128,394.4c-1.8,0-3.8,0.2-5.5,0.8c-0.2,0-0.4,0.4-0.4,0.6l0.4,2.6c0,0.2,0.2,0.2,0.2,0.4c0.2,0,0.2,0.2,0.4,0
		c1.4-0.2,3-0.4,4.2-0.4c2.4,0,2.8,0.6,2.8,2.2v1.4h-3.8c-3.6,0-5.1,1.4-5.1,4.8c0,3.2,1.6,5.3,4.6,5.3c1.6,0,3.4-0.4,4.8-1.4
		l0.2,0.6c0,0.2,0.4,0.4,0.6,0.4h2.8c0.4,0,0.6-0.2,0.6-0.6v-10.7C134.9,396.2,133.1,394.4,128,394.4L128,394.4z"/>
	<g>
		<path fill="#A1A3A6" d="M147.8,394.4c-1.8,0-4.4,0.6-6.5,1.6l-0.2-0.8c0-0.2-0.4-0.4-0.6-0.4h-2.6c-0.4,0-0.6,0.2-0.6,0.6v16
			c0,0.4,0.2,0.6,0.6,0.6h3.6c0.4,0,0.6-0.2,0.6-0.6v-11.1c1.2-0.6,3-1.2,4-1.2c0.8,0,1,0.2,1,1v11.3c0,0.4,0.2,0.6,0.6,0.6h3.4
			c0.4,0,0.6-0.2,0.6-0.6v-11.7C151.9,396.2,150.7,394.4,147.8,394.4L147.8,394.4z"/>
		<path fill="#A1A3A6" d="M37.1,380.9c-0.2-0.2-0.4-0.4-0.6-0.4c-0.2,0-0.2,0-0.4,0c-4.8,2.6-10.3,4-16,4s-11.3-1.4-16-4
			c-0.2,0-0.2,0-0.4,0c-0.2,0-0.4,0.2-0.6,0.4c-0.4,0.4-0.4,0.8,0,1.2c2.4,1.8,5.1,3.2,7.9,4c2.8,1,5.9,1.4,9.1,1.4l0,0
			c3,0,6.1-0.4,9.1-1.4c2.8-1,5.5-2.4,7.9-4C37.3,381.7,37.3,381.3,37.1,380.9L37.1,380.9z"/>
	</g>
	<path fill="#A1A3A6" d="M31.7,388.3c-0.2,0-0.2-0.2-0.4-0.2h-0.2c-1.4,0.6-2.8,1-4,1.2c-0.4,0.2-0.6,0.4-0.6,0.6
		c-1,2.6-3.2,5.1-5.9,7.5c0,0-0.2,0.2-0.4,0.2s-0.4-0.2-0.4-0.2c-2.6-2.4-5.1-4.8-6.1-7.5c0-0.2-0.2-0.4-0.6-0.4
		c-1.2-0.2-2.6-0.8-4-1.2H8.8c-0.2,0-0.2,0-0.4,0.2c-0.2,0-0.2,0.2-0.2,0.4c0.2,2.2,1,4.2,2.6,6.5c1.4,2,3.2,4,5.1,5.9
		c3.2,3.4,6.5,6.7,6.7,10.3c0,0.4,0.2,0.6,0.6,0.6H27c0.2,0,0.4,0,0.4-0.2c0.2-0.2,0.2-0.2,0.2-0.4c-0.2-2.4-1-5.1-2.8-7.5
		c-0.4-0.6-0.8-1-1.2-1.6c-0.2-0.2,0-0.4,0-0.6c0.2-0.2,0.2-0.2,0.4-0.4c1.8-1.8,3.6-3.6,5.1-5.9c1.6-2.2,2.4-4.2,2.6-6.5
		C31.9,388.7,31.7,388.5,31.7,388.3L31.7,388.3z"/>
	<path fill="#A1A3A6" d="M15.9,403.9c0,0-0.2-0.2-0.4-0.2s-0.4,0.2-0.6,0.2c-1.6,2.4-2.4,4.8-2.6,7.3c0,0.2,0,0.4,0.2,0.4
		c0.2,0.2,0.2,0.2,0.4,0.2h3.8c0.4,0,0.6-0.2,0.6-0.6c0-1.2,0.4-2.2,1-3.4c0.2-0.4,0-0.8,0-1C17.7,406.1,17.1,405.1,15.9,403.9
		L15.9,403.9z"/>
	<path fill="#A1A3A6" d="M20,390.1c1.2,0,2,0,2.2,0c0.2,0,0.6,0.2,0.6,0.6v0.2c-0.2,0.4-0.8,2-2.2,3.2c-0.2,0.2-0.4,0.2-0.6,0.2l0,0
		c-0.2,0-0.2,0-0.4-0.2c-1.4-1.4-2-2.8-2.2-3.2v-0.2c0-0.4,0.2-0.6,0.6-0.6C18.1,390.1,18.7,390.1,20,390.1L20,390.1L20,390.1z"/>
</g>
</svg>
