<?xml version="1.0" encoding="utf-8"?>
<!-- Generator: Adobe Illustrator 18.1.1, SVG Export Plug-In . SVG Version: 6.00 Build 0)  -->
<svg version="1.1" id="Layer_1" xmlns="http://www.w3.org/2000/svg" xmlns:xlink="http://www.w3.org/1999/xlink" x="0px" y="0px"
	 width="23px" height="21px" viewBox="291 154.7 23.7 21.8" enable-background="new 291 154.7 23.7 21.8" xml:space="preserve">
<path id="google_plus_2_" fill="#A1A3A6" d="M309.6,161.3v3.1h-1.2v-3.1h-3.1v-1.2h3.1V157h1.2v3.1h3.1v1.2H309.6z M301,158.2
	c1.1,0.7,1.8,1.6,1.8,2.9c0,1.1-0.7,2-1.5,2.6c-0.9,0.7-1.1,1-1.1,1.5c0,0.4,0.9,1.3,1.4,1.6c1.4,1,1.8,1.9,1.8,3.3
	c0,1.9-1.8,3.9-5.2,3.9c-3,0-5.5-1.4-5.5-3.3s2.3-3.7,5.3-3.7c0.3,0,0.7,0,0.9,0c-0.4-0.3-0.7-0.9-0.7-1.4c0.1-0.3,0.2-0.7,0.3-1
	c-0.1,0-0.3,0-0.4,0c-2.4,0-4.1-1.8-4.1-3.8c0-2,2.2-3.8,4.6-3.8c1.3,0,5.3,0,5.3,0l-1.2,1.2L301,158.2L301,158.2z M298.6,167.6
	c-2,0-3.8,1.2-3.8,2.6c0,1.5,1.4,2.6,3.5,2.6c2.9,0,3.8-1,3.8-2.5c0-0.2,0-0.3-0.1-0.5c-0.2-0.9-1-1.3-2.1-2
	C299.5,167.6,299,167.6,298.6,167.6z M300.8,161.2c-0.2-1.8-1.5-3.2-2.9-3.2c-1.3,0-2.3,1.3-2,3.1c0.2,1.6,1.4,3.1,2.9,3.2
	C300.1,164.2,301.1,162.9,300.8,161.2z"/>
<path id="twitter_2_" display="none" fill="#A1A3A6" d="M404.9,168.8c43.3,0,68,15.5,89.6,37.1c18.5-3.1,43.3-12.4,58.7-18.5
	c6.2-3.1,9.3-6.2,15.5-9.3c-9.3,21.6-18.5,40.2-37.1,52.5c-3.1,3.1-9.3,6.2-12.4,9.3l0,0c24.7,0,46.4-12.4,64.9-18.5l0,0
	c-9.3,15.5-24.7,34-40.2,43.3c-6.2,6.2-12.4,9.3-18.5,15.5c0,27.8,0,52.5-6.2,74.2c-27.8,129.8-105.1,216.4-225.6,253.5
	c-43.3,12.4-114.4,18.5-163.8,6.2c-24.7-6.2-46.4-12.4-68-21.6c-12.4-6.2-21.6-9.3-34-15.5c-3.1-3.1-6.2-3.1-9.3-6.2
	c12.4,0,24.7,3.1,37.1,0s21.6,0,34-3.1c24.7-6.2,49.5-12.4,68-24.7c9.3-6.2,24.7-12.4,30.9-21.6c-12.4,0-24.7-3.1-34-6.2
	c-37.1-12.4-58.7-37.1-74.2-74.2c12.4,0,43.3,3.1,52.5-3.1c-15.5,0-27.8-9.3-37.1-15.5c-30.9-18.5-55.6-49.5-52.5-98.9
	c3.1,3.1,9.3,3.1,12.4,6.2C68,339,74.1,339,83.4,342.1c3.1,0,12.4,3.1,15.5,0l0,0c-6.2-6.2-15.5-9.3-21.6-18.5
	c-18.5-24.7-37.1-58.7-24.7-105.1c3.1-12.4,6.2-21.6,12.4-30.9l0,0c3.1,6.2,6.2,9.3,9.3,12.4c9.3,12.4,21.6,21.6,34,34
	c43.3,34,80.4,52.5,139.1,68c15.5,3.1,34,6.2,52.5,6.2c-6.2-15.5-3.1-40.2,0-52.5c9.3-37.1,30.9-61.8,64.9-77.3
	c9.3-3.1,15.5-6.2,24.7-9.3C395.6,168.8,401.8,168.8,404.9,168.8z"/>
<path id="facebook_4_" display="none" fill="#A1A3A6" d="M435.8,116.3c0,30.9,0,89.6,0,89.6s-64.9-6.2-83.5,21.6
	c-9.3,12.4-3.1,52.5-3.1,83.5c27.8,0,58.7,0,86.5,0c-6.2,34-12.4,58.7-18.5,86.5c-24.7,0-71.1,0-71.1,0v281.3c0,0-83.5,0-120.5,0
	c0-86.5,0-185.5,0-278.2c-18.5,0-34,0-52.5,0c0-30.9,0-55.6,0-86.5c18.5,0,34,0,52.5,0c3.1-64.9,3.1-126.7,37.1-160.7
	C296.7,113.2,330.7,116.3,435.8,116.3z"/>
</svg>
