<?xml version="1.0" encoding="utf-8"?>
<!-- Generator: Adobe Illustrator 18.1.1, SVG Export Plug-In . SVG Version: 6.00 Build 0)  -->
<svg version="1.1" id="Layer_1" xmlns="http://www.w3.org/2000/svg" xmlns:xlink="http://www.w3.org/1999/xlink" x="0px" y="0px"
	 width="115px" height="26.3px" viewBox="135.7 675.2 115 26.3" enable-background="new 135.7 675.2 115 26.3" xml:space="preserve"
	>
<g>
	<path fill="#A1A3A6" d="M208.9,680.1c1.1,0,2.7,0.2,4.3,0.4c0.1,0,0.3,0,0.4-0.1c0.1-0.1,0.2-0.2,0.2-0.3l0.3-2.5
		c0-0.2-0.1-0.5-0.4-0.5c-1.5-0.4-3.3-0.6-4.9-0.6c-4.6,0-6.9,1.9-6.9,5.7v8.5c0,3.7,2.3,5.7,6.9,5.7c1.6,0,3.3-0.2,4.9-0.6
		c0.2-0.1,0.4-0.3,0.4-0.5l-0.3-2.5c0-0.1-0.1-0.2-0.2-0.3c-0.1-0.1-0.2-0.1-0.4-0.1c-1.5,0.3-3.1,0.4-4.3,0.4c-2.2,0-3-0.7-3-2.6
		v-7.3C205.8,680.7,206.6,680.1,208.9,680.1"/>
	<path fill="#A1A3A6" d="M178.9,676.6h-3c-0.3,0-0.5,0.2-0.5,0.5v7.2h-6.6v-7.2c0-0.3-0.2-0.5-0.5-0.5h-3c-0.3,0-0.5,0.2-0.5,0.5
		v18.2c0,0.3,0.2,0.5,0.5,0.5h3c0.3,0,0.5-0.2,0.5-0.5V688h6.6v7.4c0,0.3,0.2,0.5,0.5,0.5h3c0.3,0,0.5-0.2,0.5-0.5v-18.2
		C179.4,676.9,179.2,676.6,178.9,676.6"/>
	<g>
		<path fill="#A1A3A6" d="M236.5,690.7v1.7c-0.5,0.3-1.3,0.6-2.4,0.6c-0.9,0-1.2-0.3-1.2-1.2s0.2-1.1,1.2-1.1H236.5L236.5,690.7z
			 M234.6,681.5c-1.4,0-3.3,0.2-4.6,0.6c-0.2,0.1-0.4,0.3-0.3,0.5l0.3,2.1c0,0.1,0.1,0.2,0.2,0.3c0.1,0.1,0.2,0.1,0.4,0.1
			c1.2-0.2,2.4-0.4,3.4-0.4c2.1,0,2.4,0.4,2.4,1.8v1.2h-3c-2.9,0-4.3,1.2-4.3,4c0,2.7,1.4,4.3,3.7,4.3c1.4,0,2.8-0.4,4-1.1l0.1,0.4
			c0.1,0.2,0.2,0.4,0.5,0.4h2.3c0.3,0,0.5-0.2,0.5-0.5v-8.6C240.4,682.8,238.9,681.5,234.6,681.5"/>
		<path fill="#A1A3A6" d="M250.4,693c0-0.1-0.1-0.3-0.2-0.3c-0.1-0.1-0.3-0.1-0.4-0.1c-0.5,0.1-1,0.2-1.4,0.2c-0.7,0-1-0.3-1-1v-7
			h2.8c0.3,0,0.5-0.2,0.5-0.5v-2.1c0-0.3-0.2-0.5-0.5-0.5h-2.8v-3.3c0-0.1-0.1-0.3-0.2-0.4s-0.2-0.1-0.4-0.1l-2.8,0.4
			c-0.2,0-0.4,0.2-0.4,0.5v2.9h-1.6c-0.3,0-0.5,0.2-0.5,0.5v2.2c0,0.3,0.2,0.5,0.5,0.5h1.6v7.4c0,2.5,1.3,3.9,4,3.9
			c0.7,0,2-0.2,2.8-0.5c0.2-0.1,0.4-0.3,0.3-0.5L250.4,693L250.4,693z"/>
	</g>
	<path fill="#A1A3A6" d="M185.1,681.7h-2.8c-0.3,0-0.5,0.2-0.5,0.5v13.2c0,0.3,0.2,0.5,0.5,0.5h2.8c0.3,0,0.5-0.2,0.5-0.5v-13.2
		C185.7,681.9,185.4,681.7,185.1,681.7"/>
	<path fill="#A1A3A6" d="M185.1,676.1h-2.8c-0.3,0-0.5,0.2-0.5,0.5v2.8c0,0.3,0.2,0.5,0.5,0.5h2.8c0.3,0,0.5-0.2,0.5-0.5v-2.8
		C185.7,676.3,185.4,676.1,185.1,676.1"/>
	<path fill="#A1A3A6" d="M185.1,681.7h-2.8c-0.3,0-0.5,0.2-0.5,0.5v13.2c0,0.3,0.2,0.5,0.5,0.5h2.8c0.3,0,0.5-0.2,0.5-0.5v-13.2
		C185.7,681.9,185.4,681.7,185.1,681.7"/>
	<path fill="#A1A3A6" d="M196,686.3v4.9c0,1.2-0.4,1.6-1.5,1.6s-2.2-0.2-2.8-0.3v-6.6c0.6-0.5,1.8-1.1,2.8-1.1
		C195.6,684.8,196,685.2,196,686.3 M195.5,681.5c-1.5,0-2.9,0.4-4.3,1.3l-0.2-0.7c-0.1-0.2-0.2-0.3-0.5-0.3h-2.2
		c-0.3,0-0.5,0.2-0.5,0.5V701c0,0.3,0.2,0.5,0.5,0.5h2.8c0.3,0,0.5-0.2,0.5-0.5v-5.3c1.1,0.2,2.4,0.3,3.4,0.3c3.1,0,4.8-1.7,4.8-5.1
		v-4.7C199.8,682.3,197.5,681.5,195.5,681.5"/>
	<path fill="#A1A3A6" d="M224.4,681.5c-1.4,0-3.3,0.5-4.9,1.2v-6.1c0-0.3-0.2-0.5-0.5-0.5h-2.7c-0.3,0-0.5,0.2-0.5,0.5v18.7
		c0,0.3,0.2,0.5,0.5,0.5h2.8c0.3,0,0.5-0.2,0.5-0.5v-9.1c1-0.5,2.5-1.1,3.3-1.1c0.6,0,0.9,0.2,0.9,0.9v9.3c0,0.3,0.2,0.5,0.5,0.5
		h2.8c0.3,0,0.5-0.2,0.5-0.5v-9.7C227.7,682.9,226.6,681.5,224.4,681.5"/>
	<path fill="#A1A3A6" d="M155.4,688.8c0-0.3-0.2-0.5-0.5-0.5c-0.1,0-0.2,0-0.3,0.1c-1.3,1.1-3.4,2.1-6.1,2.2l0,0
		c-2.6,0-4.8-1.1-6.1-2.2c-0.1-0.1-0.2-0.1-0.3-0.1c-0.3,0-0.5,0.3-0.5,0.6c0,0.2,0.2,0.4,0.3,0.6c0.7,1.1,3.1,3,6.7,3h0.1
		c3.6,0,5.9-1.9,6.7-3C155.3,689.2,155.4,689,155.4,688.8L155.4,688.8z"/>
	<path fill="#A1A3A6" d="M155.4,696.5C155.4,696.6,155.5,696.6,155.4,696.5c0.1,0.2,0,0.2-0.1,0.2c-0.6,0-2.6-1-3.6-1.9
		c-0.1,0-0.3-0.1-0.6,0c-0.9,0.2-1.7,0.3-2.7,0.3c-5.9,0-10.6-4-10.6-8.8c0.1-4.8,4.9-8.7,10.7-8.7s10.6,4,10.6,8.7
		c0,2.9-1.7,5.5-4.3,7.1c-0.2,0.1-0.4,0.3-0.4,0.6C154.3,694.5,154.8,695.7,155.4,696.5L155.4,696.5z M158.9,697.6
		c-0.9-0.5-1.7-1.4-2.1-2.5c-0.1-0.2,0-0.4,0.2-0.6c2.6-2,4.3-5,4.3-8.2c0-6.1-5.7-11-12.8-11c-7.1,0-12.8,5-12.8,11s5.7,11,12.8,11
		c0.9,0,1.8-0.1,2.6-0.2c0.2,0,0.4,0,0.5,0.1c1.7,1.1,4.4,1.9,6.6,1.9c0.7,0,1-0.5,1-0.9C159.3,697.9,159.1,697.7,158.9,697.6
		L158.9,697.6z"/>
</g>
</svg>
