<?xml version="1.0" encoding="utf-8"?>
<!-- Generator: Adobe Illustrator 18.1.1, SVG Export Plug-In . SVG Version: 6.00 Build 0)  -->
<svg version="1.1" id="Layer_1" xmlns="http://www.w3.org/2000/svg" xmlns:xlink="http://www.w3.org/1999/xlink" x="0px" y="0px"
	 width="25px" height="22px" viewBox="288.5 167.6 25.8 22.4" enable-background="new 288.5 167.6 25.8 22.4"
	 xml:space="preserve">
<path id="google_plus_2_" display="none" fill="#A1A3A6" d="M497.6,277v86.5h-34V277h-86.5v-34h86.5v-86.5h34V243h86.5v34H497.6z
	 M256.5,190.5c30.9,18.5,49.5,46.4,49.5,80.4c0,30.9-18.5,55.6-43.3,74.2c-24.7,18.5-30.9,27.8-30.9,43.3
	c0,12.4,24.7,37.1,40.2,46.4c40.2,27.8,49.5,52.5,49.5,92.7c0,52.5-49.5,111.3-145.3,111.3c-83.5,0-154.5-40.2-154.5-92.7
	S86.5,440.8,170,440.8c9.3,0,18.5,0,24.7,0c-12.4-9.3-18.5-24.7-18.5-40.2c3.1-9.3,6.2-18.5,9.3-27.8c-3.1,0-9.3,0-12.4,0
	c-68,0-114.4-49.5-114.4-108.2c0-55.6,61.8-108.2,129.8-108.2c37.1,0,148.4,0,148.4,0l-34,34h-46.4V190.5z M188.5,456.3
	c-55.6,0-108.2,34-108.2,74.2c0,43.3,40.2,74.2,98.9,74.2c80.4,0,108.2-27.8,108.2-71.1c0-6.2,0-9.3-3.1-15.5
	c-6.2-24.7-27.8-37.1-58.7-55.6C213.3,456.3,200.9,456.3,188.5,456.3z M250.4,273.9c-6.2-49.5-43.3-89.6-80.4-89.6
	s-64.9,37.1-55.6,86.5c6.2,46.4,40.2,86.5,80.4,89.6C231.8,360.5,259.6,323.4,250.4,273.9z"/>
<path id="twitter_2_" fill="#A1A3A6" d="M305,170.8c1.5,0,2.4,0.5,3.2,1.3c0.7-0.1,1.5-0.4,2.1-0.7c0.2-0.1,0.3-0.2,0.5-0.3
	c-0.3,0.8-0.7,1.4-1.3,1.9c-0.1,0.1-0.3,0.2-0.4,0.3l0,0c0.9,0,1.6-0.4,2.3-0.7l0,0c-0.3,0.5-0.9,1.2-1.4,1.5
	c-0.2,0.2-0.4,0.3-0.7,0.5c0,1,0,1.9-0.2,2.6c-1,4.6-3.7,7.7-8,9c-1.5,0.4-4,0.7-5.8,0.2c-0.9-0.2-1.6-0.4-2.4-0.8
	c-0.4-0.2-0.8-0.3-1.2-0.5c-0.1-0.1-0.2-0.1-0.3-0.2c0.4,0,0.9,0.1,1.3,0s0.8,0,1.2-0.1c0.9-0.2,1.8-0.4,2.4-0.9
	c0.3-0.2,0.9-0.4,1.1-0.8c-0.4,0-0.9-0.1-1.2-0.2c-1.3-0.4-2.1-1.3-2.6-2.6c0.4,0,1.5,0.1,1.9-0.1c-0.5,0-1-0.3-1.3-0.5
	c-1.1-0.7-2-1.8-1.9-3.5c0.1,0.1,0.3,0.1,0.4,0.2c0.4,0.3,0.7,0.3,1,0.4c0.1,0,0.4,0.1,0.5,0l0,0c-0.2-0.2-0.5-0.3-0.8-0.7
	c-0.7-0.9-1.3-2.1-0.9-3.7c0.1-0.4,0.2-0.8,0.4-1.1l0,0c0.1,0.2,0.2,0.3,0.3,0.4c0.3,0.4,0.8,0.8,1.2,1.2c1.5,1.2,2.8,1.9,4.9,2.4
	c0.5,0.1,1.2,0.2,1.9,0.2c-0.2-0.5-0.1-1.4,0-1.9c0.3-1.3,1.1-2.2,2.3-2.7c0.3-0.1,0.5-0.2,0.9-0.3
	C304.6,170.8,304.9,170.8,305,170.8z"/>
<path id="facebook_4_" display="none" fill="#A1A3A6" d="M435.8,116.3c0,30.9,0,89.6,0,89.6s-64.9-6.2-83.5,21.6
	c-9.3,12.4-3.1,52.5-3.1,83.5c27.8,0,58.7,0,86.5,0c-6.2,34-12.4,58.7-18.5,86.5c-24.7,0-71.1,0-71.1,0v281.3c0,0-83.5,0-120.5,0
	c0-86.5,0-185.5,0-278.2c-18.5,0-34,0-52.5,0c0-30.9,0-55.6,0-86.5c18.5,0,34,0,52.5,0c3.1-64.9,3.1-126.7,37.1-160.7
	C296.7,113.2,330.7,116.3,435.8,116.3z"/>
</svg>
