<?xml version="1.0" encoding="utf-8"?>
<!-- Generator: Adobe Illustrator 18.1.1, SVG Export Plug-In . SVG Version: 6.00 Build 0)  -->
<svg version="1.1" id="Layer_1" xmlns="http://www.w3.org/2000/svg" xmlns:xlink="http://www.w3.org/1999/xlink" x="0px" y="0px"
	 viewBox="0 0 33 26.7" enable-background="new 0 0 33 26.7" xml:space="preserve">
<g>
	<path fill="none" stroke="#231F20" stroke-linecap="round" stroke-miterlimit="10" d="M27.6,19.6c1.8-0.6,4.9-2.3,4.9-6.6
		c0-3.9-3.2-7.1-7.2-6.9c-1.6-3.3-4.9-5.6-8.8-5.6c-5.2,0-9.4,4-9.7,9.2C3.5,9,0.5,11.4,0.5,14.8c0,4.1,3.4,5,4.9,5.2"/>
	<path fill="none" stroke="#231F20" stroke-linecap="round" stroke-miterlimit="10" d="M11.8,16.9c1.1-1.4,2.8-2.3,4.7-2.3
		c3.2,0,5.8,2.6,5.8,5.8v1.5"/>
	<path fill="none" stroke="#231F20" stroke-linecap="round" stroke-miterlimit="10" d="M21.2,23.9c-1.1,1.4-2.8,2.3-4.7,2.3
		c-3.2,0-5.8-2.6-5.8-5.8V19"/>
	<polyline fill="none" stroke="#231F20" stroke-linecap="round" stroke-miterlimit="10" points="8.5,21.1 10.7,19 12.9,21.1 	"/>
	<polyline fill="none" stroke="#231F20" stroke-linecap="round" stroke-miterlimit="10" points="24.5,19.7 22.3,21.9 20.1,19.7 	"/>
</g>
</svg>
