<?xml version="1.0" encoding="utf-8"?>
<!-- Generator: Adobe Illustrator 18.1.1, SVG Export Plug-In . SVG Version: 6.00 Build 0)  -->
<svg version="1.1" id="Layer_1" xmlns="http://www.w3.org/2000/svg" xmlns:xlink="http://www.w3.org/1999/xlink" x="0px" y="0px"
	 viewBox="0 0 33 26" enable-background="new 0 0 33 26" xml:space="preserve">
<g>
	<path fill="none" stroke="#231F20" stroke-miterlimit="10" d="M32.5,22.8c0,1.5-1.2,2.8-2.8,2.8H3.3c-1.5,0-2.8-1.2-2.8-2.8V3.3
		c0-1.5,1.2-2.8,2.8-2.8h26.4c1.5,0,2.8,1.2,2.8,2.8V22.8z"/>
	<line fill="none" stroke="#231F20" stroke-miterlimit="10" x1="0.5" y1="7.5" x2="32.5" y2="7.5"/>
	<circle fill="none" stroke="#231F20" stroke-miterlimit="10" cx="5.4" cy="4" r="0.7"/>
	<circle fill="none" stroke="#231F20" stroke-miterlimit="10" cx="9.5" cy="4" r="0.7"/>
	<circle fill="none" stroke="#231F20" stroke-miterlimit="10" cx="13.7" cy="4" r="0.7"/>
	<line fill="none" stroke="#231F20" stroke-miterlimit="10" x1="25.5" y1="11.6" x2="11.6" y2="11.6"/>
	<line fill="none" stroke="#231F20" stroke-miterlimit="10" x1="6.1" y1="11.6" x2="7.5" y2="11.6"/>
	<line fill="none" stroke="#231F20" stroke-miterlimit="10" x1="25.5" y1="15.8" x2="11.6" y2="15.8"/>
	<line fill="none" stroke="#231F20" stroke-miterlimit="10" x1="6.1" y1="15.8" x2="7.5" y2="15.8"/>
	<line fill="none" stroke="#231F20" stroke-miterlimit="10" x1="25.5" y1="20" x2="11.6" y2="20"/>
	<line fill="none" stroke="#231F20" stroke-miterlimit="10" x1="6.1" y1="20" x2="7.5" y2="20"/>
</g>
</svg>
