<?xml version="1.0" encoding="utf-8"?>
<!-- Generator: Adobe Illustrator 18.1.1, SVG Export Plug-In . SVG Version: 6.00 Build 0)  -->
<svg version="1.1" id="Layer_1" xmlns="http://www.w3.org/2000/svg" xmlns:xlink="http://www.w3.org/1999/xlink" x="0px" y="0px"
	 viewBox="0 0 21.9 33" enable-background="new 0 0 21.9 33" xml:space="preserve">
<g>
	<circle fill="none" stroke="#231F20" stroke-miterlimit="10" cx="10.9" cy="22.1" r="10.4"/>
	<path fill="none" stroke="#231F20" stroke-miterlimit="10" d="M17.9,14.3V7.5c0-3.8-3.1-7-7-7c-3.8,0-7,3.1-7,7v6.8"/>
	<circle fill="none" stroke="#231F20" stroke-miterlimit="10" cx="10.9" cy="22.1" r="5.6"/>
	<line fill="none" stroke="#231F20" stroke-linecap="round" stroke-miterlimit="10" x1="10.9" y1="15.1" x2="10.9" y2="17.9"/>
	<line fill="none" stroke="#231F20" stroke-linecap="round" stroke-miterlimit="10" x1="10.9" y1="26.2" x2="10.9" y2="29"/>
	<line fill="none" stroke="#231F20" stroke-linecap="round" stroke-miterlimit="10" x1="17.9" y1="22.1" x2="15.1" y2="22.1"/>
	<line fill="none" stroke="#231F20" stroke-linecap="round" stroke-miterlimit="10" x1="6.8" y1="22.1" x2="4" y2="22.1"/>
	<g>
		<path fill="#231F20" d="M10.9,20.7c-0.8,0-1.4,0.6-1.4,1.4c0,0.8,0.6,1.4,1.4,1.4c0.8,0,1.4-0.6,1.4-1.4
			C12.3,21.3,11.7,20.7,10.9,20.7L10.9,20.7z"/>
	</g>
</g>
</svg>
